PathFileType	4	(X/Y/Z)	C:\Users\WrightLab\Desktop\Jo\P3_10.trc
DataRate	CameraRate	NumFrames	NumMarkers	Units	OrigDataRate	OrigDataStartFrame	OrigNumFrames
100.00	100.00	       13	19	mm	100.00	159	       633
Frame#	Time	Headset_Front			Headset_Back			Headset_Left			Headset_Right			Left_Shoulder			Right_Shoulder			Sternum			C7			Left Elbow			Right Elbow			Left Wrist			Right Wrist			Left ASIS			Right ASIS			S2			Left Knee			Right Knee			Left Ankle			Right Ankle			
		X1	Y1	Z1	X2	Y2	Z2	X3	Y3	Z3	X4	Y4	Z4	X5	Y5	Z5	X6	Y6	Z6	X7	Y7	Z7	X8	Y8	Z8	X9	Y9	Z9	X10	Y10	Z10	X11	Y11	Z11	X12	Y12	Z12	X13	Y13	Z13	X14	Y14	Z14	X15	Y15	Z15	X16	Y16	Z16	X17	Y17	Z17	X18	Y18	Z18	X19	Y19	Z19	

159	1.580	-529.12207	1467.15503	-291.82684	-602.44727	1586.79138	-563.06702	-468.96021	1531.07312	-483.64276	-657.97882	1508.05774	-363.67093	-405.60873	1302.35010	-544.33771	-765.32001	1327.20508	-507.80566	-573.25421	1194.39880	-400.51193	-594.36517	1369.22864	-578.67194	-353.56973	968.32520	-571.37799	-873.41943	989.41528	-500.24780	-340.73941	784.65839	-467.49033	-853.78357	812.79382	-356.50449	-492.19574	841.87256	-423.83002				-615.55029	917.65717	-637.82587	-490.20383	462.40826	-291.36032	-732.79883	421.21576	-510.97150	-715.62415	89.87486	-580.88666	-536.32672	130.73953	-353.84247	
160	1.590	-528.28955	1466.07874	-281.82465	-601.89673	1585.91284	-554.14880	-467.76874	1530.42517	-476.19040	-656.43073	1507.62061	-354.65936	-405.77176	1301.18945	-536.35248	-765.08081	1326.20850	-498.51093	-571.88300	1193.14148	-392.70288	-594.15991	1367.84692	-569.63507	-354.59549	966.47510	-563.39569	-872.08124	988.29175	-488.72275	-340.75079	783.67273	-458.91324	-851.02838	811.37622	-343.75201	-490.42310	841.34363	-415.87640				-615.95795	917.28595	-628.99622	-490.29446	459.34747	-286.23486	-732.94440	420.61514	-507.80045	-715.29828	90.36671	-579.75171	-535.96735	126.05795	-327.22031	
161	1.600	-525.31506	1465.50354	-274.39261	-601.12756	1584.88660	-544.92285	-466.93289	1529.31079	-467.38010	-654.14996	1505.89941	-345.07886	-405.45303	1300.31970	-529.37268	-764.62061	1325.25391	-488.65866	-570.58459	1192.43457	-383.79630	-593.91125	1366.98291	-560.66022	-354.21536	965.70276	-556.23590	-871.23138	987.39832	-477.98962	-340.33398	783.61462	-450.39630	-849.14594	811.19495	-332.31369	-491.06320	840.22754	-407.18402	-743.07074	848.27850	-407.47009	-615.87860	916.37976	-620.13025	-489.91473	456.44498	-280.37485	-733.20715	419.85062	-503.43204	-715.08948	90.65170	-579.01422	-535.01276	121.88867	-300.39069	
162	1.610				-600.30023	1583.81226	-536.21368	-465.40204	1528.23853	-458.88092	-653.37787	1505.31628	-336.39111	-404.52930	1298.53491	-520.57269	-763.33179	1324.24487	-478.41037	-570.10413	1190.53931	-375.00269	-593.35004	1365.99255	-551.10156	-354.16003	964.05609	-548.62573	-869.57312	986.14648	-466.43524	-339.12997	782.82782	-442.45139	-847.24316	811.38141	-321.03500	-490.71469	838.52106	-398.51270				-616.20294	915.58618	-611.45441	-489.79401	453.14920	-276.10001	-732.86066	419.52753	-499.98148	-714.84167	91.04456	-578.15771	-532.99530	118.96603	-274.57874	
163	1.620	-521.22791	1463.93896	-258.05524	-599.39294	1582.61157	-526.93781	-464.53165	1526.79077	-450.69708	-651.87170	1504.34814	-326.55090	-403.82443	1297.39478	-513.04803	-762.38678	1322.80127	-467.98151	-569.22699	1189.09888	-365.00146	-592.61768	1364.57263	-541.68011	-353.99930	962.92554	-539.74255	-868.69458	984.74719	-455.28366	-338.46753	782.19128	-433.52930	-844.95551	809.78076	-310.76257	-490.31000	836.51721	-389.81488	-743.41162	845.10773	-393.65482	-615.51221	914.18134	-602.16827	-490.21036	449.34229	-270.94095	-732.91833	419.35928	-494.84726	-714.62482	91.38276	-577.40631	-531.02942	117.63924	-250.06430	
164	1.630				-597.70959	1580.45789	-517.27704	-463.17902	1525.50903	-442.48636	-650.43793	1503.39392	-317.34061	-402.74796	1295.91187	-504.99551	-761.59882	1321.82373	-458.07007	-566.88220	1187.85425	-357.38412	-592.02002	1363.31018	-532.47485	-353.76273	960.83948	-532.61212	-866.82996	983.51709	-444.13123	-338.87518	780.47949	-425.23975	-841.84241	809.16571	-297.25189	-488.90543	835.02521	-380.95920	-742.54974	846.14728	-379.18738	-615.44507	913.35724	-592.83893	-490.52567	446.09622	-266.55774	-732.83783	419.14133	-490.28470	-714.44189	91.68674	-576.77887	-528.46497	117.31216	-226.05714	
165	1.640	-517.20514	1461.18066	-239.32019	-596.80878	1579.07813	-508.76556	-461.76926	1524.09009	-434.30762	-648.56689	1502.70874	-308.44678	-401.66589	1294.30591	-496.48471	-760.01508	1320.90881	-448.21976	-565.62946	1186.31201	-348.19144	-591.14606	1361.67444	-523.32654	-353.25885	959.29523	-523.84784	-865.67822	981.90765	-433.13138	-338.79282	778.80408	-416.46176	-840.22510	808.97388	-286.09656	-488.80133	833.11218	-372.32254				-615.00586	912.43970	-584.43073	-490.42526	443.40790	-261.17218	-732.23499	418.46133	-484.92752	-714.42206	91.72514	-576.71283	-525.15717	118.00574	-204.37311	
166	1.650	-514.44861	1459.44519	-230.79863	-595.57294	1577.63672	-500.05005	-460.27118	1522.90308	-426.07040	-647.02301	1500.85095	-299.75989	-400.76181	1293.11377	-487.78110	-758.93127	1319.08850	-439.58713	-564.02948	1185.08984	-338.65689	-589.29437	1359.86218	-514.32959	-352.31482	957.91498	-516.01080	-863.49475	980.62744	-422.46149	-337.20407	777.90631	-408.25143	-837.31769	807.61981	-273.97754	-488.08746	830.19214	-362.29950	-742.12128	842.14313	-365.51868	-614.35565	911.21576	-575.64813	-490.11438	440.71027	-256.41324	-732.44971	418.02661	-480.08368	-714.42206	91.72514	-576.71283	-522.71271	118.25678	-185.05077	
167	1.660	-512.33051	1459.71521	-222.62836	-594.17407	1576.24854	-491.59393	-458.30606	1521.43298	-418.47461	-644.64899	1499.96716	-290.59213	-399.37274	1290.75183	-478.95807	-757.00610	1318.12756	-428.48776	-563.35529	1183.58228	-329.87201	-588.18945	1358.56128	-505.11536	-351.71454	955.95660	-507.48004	-862.24542	978.90051	-412.02097	-336.82819	776.05920	-399.67133	-834.50867	806.92072	-263.21423	-487.85892	828.44061	-352.85791	-740.91296	841.18420	-355.42639	-613.41608	909.77594	-566.34021	-490.17441	438.09665	-251.25720	-732.51672	417.22845	-473.85855	-714.68585	92.61884	-575.59790	-519.85608	119.82330	-167.19513	
168	1.670	-509.88684	1457.67615	-213.95428	-592.66882	1574.35815	-482.80707	-456.83698	1519.59839	-408.38977	-643.10754	1498.46008	-280.84698	-397.76804	1289.51184	-470.35974	-755.63531	1317.06799	-419.27332	-561.06561	1182.12732	-320.97037	-587.67255	1358.14746	-496.47891	-351.37845	953.90375	-498.73538	-859.95599	977.62433	-401.55554	-335.64575	774.53754	-391.32983	-831.61884	806.54901	-251.88629	-486.98117	826.68268	-343.21613				-612.19830	908.22266	-556.66748	-490.45535	435.89816	-244.17470	-731.71783	416.16742	-468.28064	-714.42206	91.72514	-576.71283	-517.09460	121.30418	-151.00981	
169	1.680	-507.87335	1457.09253	-205.50797	-590.62805	1572.72668	-473.25555	-454.85507	1518.43115	-400.30728	-640.41962	1497.68262	-272.50308	-395.99991	1288.02905	-461.11520	-754.05994	1315.40393	-409.53085	-560.08215	1180.78564	-312.23508	-585.75220	1356.20557	-486.72855	-350.63367	952.80817	-490.34756	-858.37579	975.96924	-390.71472	-335.35886	772.13922	-382.79059	-828.79340	805.24530	-241.05113	-486.21851	824.38000	-333.20538	-740.52325	838.30072	-339.23599	-611.14319	907.00128	-547.17407	-491.89474	433.87137	-237.89163	-731.43835	415.61752	-462.40927	-715.84094	94.50011	-569.90900	-514.94257	122.29012	-137.42427	
170	1.690	-505.35815	1456.05933	-195.95450	-589.03687	1571.16309	-464.76352	-453.01801	1516.82996	-391.21277	-638.78613	1497.23657	-263.18158	-394.77585	1286.13184	-451.92981	-752.78601	1314.52100	-401.23669	-557.79303	1178.87329	-301.80856	-584.08051	1355.29639	-477.60385	-349.66553	950.74091	-482.46606	-856.31024	974.66632	-380.11157	-331.33078	771.38458	-374.14377	-825.74432	804.07703	-229.93121	-485.80032	822.01794	-324.39722	-739.44305	838.73151	-323.30801	-610.08258	905.61328	-537.15930	-490.14340	433.53857	-230.64160	-731.72095	414.50284	-455.51553	-715.74811	95.05338	-570.64514	-513.02222	122.00966	-125.25587	
171	1.700	-503.47568	1455.31238	-186.75726	-587.24591	1570.15271	-456.08551	-450.73123	1515.83496	-382.71121	-635.39740	1495.87268	-253.52831	-392.79190	1284.84509	-443.21481	-750.63391	1313.39856	-390.54117	-555.58740	1178.29736	-292.26099	-582.10413	1353.46277	-467.72623	-348.50381	949.19373	-473.35983	-853.94275	973.43054	-369.70734	-330.90002	769.28131	-365.63818	-822.79950	804.25781	-219.67360	-483.91660	820.50647	-314.63086				-608.43268	904.20782	-527.93524	-489.08051	432.64075	-221.94620	-731.13788	413.86948	-448.80478	-715.65088	94.68061	-571.03931	-511.40433	121.94975	-115.72485	
